<?xml version="1.0" encoding="iso-8859-1"?>
<!-- Generator: Adobe Illustrator 19.0.0, SVG Export Plug-In . SVG Version: 6.00 Build 0)  -->
<svg version="1.1" id="Layer_1" xmlns="http://www.w3.org/2000/svg" xmlns:xlink="http://www.w3.org/1999/xlink" x="0px" y="0px"
	 viewBox="0 0 511.467 511.467" style="enable-background:new 0 0 511.467 511.467;" xml:space="preserve">
<polygon style="fill:#FF7058;" points="243.733,235.467 190.4,276 85.867,130.933 116.8,100 "/>
<path style="fill:#40596B;" d="M443.2,311.2H129.6c-37.333,0-68.267,30.933-68.267,68.267l0,0c0,37.333,30.933,68.267,68.267,68.267
	h313.6c37.333,0,68.267-30.933,68.267-68.267l0,0C511.467,342.133,480.533,311.2,443.2,311.2z"/>
<path style="fill:#334A5E;" d="M129.6,408.267c-16,0-28.8-12.8-28.8-28.8s12.8-28.8,28.8-28.8h313.6c16,0,28.8,12.8,28.8,28.8
	s-12.8,28.8-28.8,28.8H129.6z"/>
<circle style="fill:#F2F2F2;" cx="443.2" cy="379.467" r="28.8"/>
<path style="fill:#E4EAEF;" d="M422.933,366.667c10.667-10.667,28.8-10.667,40.533,0c4.267,4.267,7.467,10.667,7.467,16
	c1.067-8.533-1.067-17.067-7.467-23.467c-10.667-10.667-28.8-10.667-40.533,0c-6.4,6.4-8.533,14.933-7.467,23.467
	C415.467,377.333,418.667,372,422.933,366.667z"/>
<circle style="fill:#F2F2F2;" cx="366.4" cy="379.467" r="28.8"/>
<path style="fill:#E4EAEF;" d="M346.133,366.667c10.667-10.667,28.8-10.667,40.533,0c4.267,4.267,7.467,10.667,7.467,16
	c1.067-8.533-1.067-17.067-7.467-23.467c-10.667-10.667-28.8-10.667-40.533,0c-6.4,6.4-8.533,14.933-7.467,23.467
	C338.667,377.333,341.867,372,346.133,366.667z"/>
<circle style="fill:#F2F2F2;" cx="283.2" cy="379.467" r="28.8"/>
<path style="fill:#E4EAEF;" d="M262.933,366.667c10.667-10.667,28.8-10.667,40.533,0c4.267,4.267,7.467,10.667,7.467,16
	c1.067-8.533-1.067-17.067-7.467-23.467c-10.667-10.667-28.8-10.667-40.533,0c-6.4,6.4-8.533,14.933-7.467,23.467
	C255.467,377.333,258.667,372,262.933,366.667z"/>
<circle style="fill:#F2F2F2;" cx="206.4" cy="379.467" r="28.8"/>
<path style="fill:#E4EAEF;" d="M186.133,366.667c10.667-10.667,28.8-10.667,40.533,0c4.267,4.267,7.467,10.667,7.467,16
	c1.067-8.533-1.067-17.067-7.467-23.467c-10.667-10.667-28.8-10.667-40.533,0c-6.4,6.4-8.533,14.933-7.467,23.467
	C178.667,377.333,181.867,372,186.133,366.667z"/>
<circle style="fill:#F2F2F2;" cx="129.6" cy="379.467" r="28.8"/>
<path style="fill:#E4EAEF;" d="M109.333,366.667c10.667-10.667,28.8-10.667,40.533,0c4.267,4.267,7.467,10.667,7.467,16
	c1.067-8.533-1.067-17.067-7.467-23.467c-10.667-10.667-28.8-10.667-40.533,0c-6.4,6.4-8.533,14.933-7.467,23.467
	C102.933,377.333,105.067,372,109.333,366.667z"/>
<path style="fill:#FFD15C;" d="M44.267,271.733L0.533,244L75.2,109.6c9.6-19.2,33.067-25.6,51.2-13.867l0,0
	C144.533,107.467,148.8,132,134.933,148L44.267,271.733z"/>
<circle style="fill:#FF7058;" cx="108.267" cy="124.533" r="13.867"/>
<g>
	<path style="fill:#ACB3BA;" d="M20.8,185.333c-27.733,27.733-27.733,73.6,0,102.4c27.733,28.8,73.6,27.733,102.4,0L20.8,185.333z"
		/>
	<rect x="195.733" y="295.2" style="fill:#ACB3BA;" width="199.467" height="17.067"/>
</g>
<path style="fill:#FFD15C;" d="M443.2,295.2H184c-20.267,0-37.333-17.067-37.333-37.333l0,0c0-20.267,17.067-37.333,37.333-37.333
	h259.2V295.2z"/>
<polygon style="fill:#FF7058;" points="434.667,220.533 266.133,220.533 266.133,143.733 346.133,63.733 434.667,63.733 "/>
<polygon style="fill:#54C0EB;" points="292.8,193.867 292.8,154.4 357.867,90.4 406.933,90.4 406.933,193.867 "/>
<g>
	<polygon style="fill:#84DBFF;" points="406.933,112.8 406.933,127.733 354.667,193.867 342.933,193.867 	"/>
	<polygon style="fill:#84DBFF;" points="406.933,138.4 406.933,153.333 374.933,193.867 363.2,193.867 	"/>
</g>
<g>
</g>
<g>
</g>
<g>
</g>
<g>
</g>
<g>
</g>
<g>
</g>
<g>
</g>
<g>
</g>
<g>
</g>
<g>
</g>
<g>
</g>
<g>
</g>
<g>
</g>
<g>
</g>
<g>
</g>
</svg>
